ffmpeg started on 2025-05-12 at 13:46:16
Report written to "D:\Convert\FFMetrics\reports\ssim_report-6.txt"
Log level: 32
Command line:
ffmpeg -hide_banner -nostdin -i "G:\\\xc0\xed\xe8\xec\xe5\\\xce\xed\xe3\xee\xe8\xed\xe3\xe8\\!_35_\xcb\xe5\xf2\xee_2024\\DreamCast\\\xc0\xf2\xf0\xe8 - \xcc\xee\xe8 \xe4\xee\xf0\xee\xe3\xe8\xe5 \xec\xee\xec\xe5\xed\xf2\xfb\\[DC] Atri - My Dear Moments - 08_Telegram_HEVC.mkv" -i "G:\\\xc0\xed\xe8\xec\xe5\\\xce\xed\xe3\xee\xe8\xed\xe3\xe8\\!_35_\xcb\xe5\xf2\xee_2024\\DreamCast\\\xc0\xf2\xf0\xe8 - \xcc\xee\xe8 \xe4\xee\xf0\xee\xe3\xe8\xe5 \xec\xee\xec\xe5\xed\xf2\xfb\\[DC] Atri - My Dear Moments - 08_Telegram.mp4" -lavfi "[0:v]settb=AVTB,setpts=PTS-STARTPTS,format=pix_fmts=yuv420p10,fps=24000/1001,scale=1920:1080:flags=bicubic[main];[1:v]settb=AVTB,setpts=PTS-STARTPTS,format=pix_fmts=yuv420p,fps=24000/1001,scale=1920:1080:flags=bicubic[ref];[main][ref]ssim=eof_action=endall:stats_file='D\\:/Convert/FFMetrics/logs/ssim_logfile-6.txt'" -f null -
Input #0, matroska,webm, from 'G:\Аниме\Онгоинги\!_35_Лето_2024\DreamCast\Атри - Мои дорогие моменты\[DC] Atri - My Dear Moments - 08_Telegram_HEVC.mkv':
  Metadata:
    COMPATIBLE_BRANDS: isomiso2avc1mp41
    MAJOR_BRAND     : isom
    MINOR_VERSION   : 512
    ENCODER         : Lavf61.7.100
  Duration: 00:23:46.65, start: -0.021000, bitrate: 905 kb/s
  Stream #0:0: Video: hevc (Main 10), yuv420p10le(tv, bt709, progressive), 1920x1080 [SAR 1:1 DAR 16:9], 23.98 fps, 23.98 tbr, 1k tbn (default)
      Metadata:
        HANDLER_NAME    : VideoHandler
        VENDOR_ID       : [0][0][0][0]
        ENCODER         : Lavc61.19.100 libx265
        BPS             : 708327
        DURATION        : 00:23:46.549708333
        NUMBER_OF_FRAMES: 34203
        NUMBER_OF_BYTES : 126308053
        _STATISTICS_WRITING_APP: mkvpropedit v66.0.0 ('Josie') 64-bit
        _STATISTICS_WRITING_DATE_UTC: 2025-05-06 14:48:40
        _STATISTICS_TAGS: BPS DURATION NUMBER_OF_FRAMES NUMBER_OF_BYTES
  Stream #0:1: Audio: aac (LC), 48000 Hz, stereo, fltp (default)
      Metadata:
        HANDLER_NAME    : SoundHandler
        VENDOR_ID       : [0][0][0][0]
        ENCODER         : Lavc61.19.100 aac
        BPS             : 193502
        DURATION        : 00:23:46.645000000
        NUMBER_OF_FRAMES: 66875
        NUMBER_OF_BYTES : 34507339
        _STATISTICS_WRITING_APP: mkvpropedit v66.0.0 ('Josie') 64-bit
        _STATISTICS_WRITING_DATE_UTC: 2025-05-06 14:48:40
        _STATISTICS_TAGS: BPS DURATION NUMBER_OF_FRAMES NUMBER_OF_BYTES
Input #1, mov,mp4,m4a,3gp,3g2,mj2, from 'G:\Аниме\Онгоинги\!_35_Лето_2024\DreamCast\Атри - Мои дорогие моменты\[DC] Atri - My Dear Moments - 08_Telegram.mp4':
  Metadata:
    major_brand     : isom
    minor_version   : 512
    compatible_brands: isomiso2avc1mp41
    encoder         : Lavf61.1.100
  Duration: 00:23:46.62, start: 0.000000, bitrate: 3460 kb/s
  Stream #1:0[0x1](und): Video: h264 (High) (avc1 / 0x31637661), yuv420p(tv, bt709, progressive), 1920x1080 [SAR 1:1 DAR 16:9], 3313 kb/s, 23.98 fps, 23.98 tbr, 24k tbn (default)
      Metadata:
        handler_name    : VideoHandler
        vendor_id       : [0][0][0][0]
        encoder         : Lavc61.3.100 h264_qsv
  Stream #1:1[0x2](und): Audio: aac (HE-AACv2) (mp4a / 0x6134706D), 48000 Hz, stereo, fltp, 144 kb/s (default)
      Metadata:
        handler_name    : SoundHandler
        vendor_id       : [0][0][0][0]
Stream mapping:
  Stream #0:0 (hevc) -> settb:default
  Stream #1:0 (h264) -> settb:default
  ssim:default -> Stream #0:0 (wrapped_avframe)
  Stream #0:1 -> #0:1 (aac (native) -> pcm_s16le (native))
Output #0, null, to 'pipe:':
  Metadata:
    COMPATIBLE_BRANDS: isomiso2avc1mp41
    MAJOR_BRAND     : isom
    MINOR_VERSION   : 512
    encoder         : Lavf61.7.100
  Stream #0:0: Video: wrapped_avframe, yuv420p10le(tv, bt709, progressive), 1920x1080 [SAR 1:1 DAR 16:9], q=2-31, 200 kb/s, 23.98 fps, 23.98 tbn
      Metadata:
        encoder         : Lavc61.19.100 wrapped_avframe
  Stream #0:1: Audio: pcm_s16le, 48000 Hz, stereo, s16, 1536 kb/s (default)
      Metadata:
        HANDLER_NAME    : SoundHandler
        VENDOR_ID       : [0][0][0][0]
        _STATISTICS_TAGS: BPS DURATION NUMBER_OF_FRAMES NUMBER_OF_BYTES
        BPS             : 193502
        DURATION        : 00:23:46.645000000
        NUMBER_OF_FRAMES: 66875
        NUMBER_OF_BYTES : 34507339
        _STATISTICS_WRITING_APP: mkvpropedit v66.0.0 ('Josie') 64-bit
        _STATISTICS_WRITING_DATE_UTC: 2025-05-06 14:48:40
        encoder         : Lavc61.19.100 pcm_s16le
frame=  175 fps=0.0 q=-0.0 size=N/A time=00:00:07.29 bitrate=N/A speed=13.9x    frame=  429 fps=415 q=-0.0 size=N/A time=00:00:17.89 bitrate=N/A speed=17.3x    frame=  660 fps=424 q=-0.0 size=N/A time=00:00:27.52 bitrate=N/A speed=17.7x    frame=  920 fps=445 q=-0.0 size=N/A time=00:00:38.37 bitrate=N/A speed=18.6x    frame= 1197 fps=463 q=-0.0 size=N/A time=00:00:49.92 bitrate=N/A speed=19.3x    frame= 1445 fps=467 q=-0.0 size=N/A time=00:01:00.26 bitrate=N/A speed=19.5x    frame= 1678 fps=463 q=-0.0 size=N/A time=00:01:09.98 bitrate=N/A speed=19.3x    frame= 1923 fps=464 q=-0.0 size=N/A time=00:01:20.20 bitrate=N/A speed=19.4x    frame= 2153 fps=461 q=-0.0 size=N/A time=00:01:29.79 bitrate=N/A speed=19.2x    frame= 2374 fps=457 q=-0.0 size=N/A time=00:01:39.01 bitrate=N/A speed=19.1x    frame= 2578 fps=452 q=-0.0 size=N/A time=00:01:47.52 bitrate=N/A speed=18.9x    frame= 2775 fps=446 q=-0.0 size=N/A time=00:01:55.74 bitrate=N/A speed=18.6x    frame= 2989 fps=444 q=-0.0 size=N/A time=00:02:04.66 bitrate=N/A speed=18.5x    frame= 3212 fps=442 q=-0.0 size=N/A time=00:02:13.96 bitrate=N/A speed=18.5x    frame= 3440 fps=443 q=-0.0 size=N/A time=00:02:23.47 bitrate=N/A speed=18.5x    frame= 3653 fps=441 q=-0.0 size=N/A time=00:02:32.36 bitrate=N/A speed=18.4x    frame= 3895 fps=442 q=-0.0 size=N/A time=00:02:42.45 bitrate=N/A speed=18.5x    frame= 4136 fps=444 q=-0.0 size=N/A time=00:02:52.50 bitrate=N/A speed=18.5x    frame= 4392 fps=447 q=-0.0 size=N/A time=00:03:03.18 bitrate=N/A speed=18.6x    frame= 4654 fps=450 q=-0.0 size=N/A time=00:03:14.11 bitrate=N/A speed=18.8x    frame= 4921 fps=453 q=-0.0 size=N/A time=00:03:25.24 bitrate=N/A speed=18.9x    frame= 5123 fps=450 q=-0.0 size=N/A time=00:03:33.67 bitrate=N/A speed=18.8x    frame= 5361 fps=451 q=-0.0 size=N/A time=00:03:43.59 bitrate=N/A speed=18.8x    frame= 5617 fps=452 q=-0.0 size=N/A time=00:03:54.27 bitrate=N/A speed=18.9x    frame= 5872 fps=454 q=-0.0 size=N/A time=00:04:04.91 bitrate=N/A speed=18.9x    frame= 6134 fps=456 q=-0.0 size=N/A time=00:04:15.83 bitrate=N/A speed=  19x    frame= 6382 fps=457 q=-0.0 size=N/A time=00:04:26.18 bitrate=N/A speed=19.1x    frame= 6655 fps=460 q=-0.0 size=N/A time=00:04:37.56 bitrate=N/A speed=19.2x    frame= 6926 fps=462 q=-0.0 size=N/A time=00:04:48.87 bitrate=N/A speed=19.3x    frame= 7205 fps=465 q=-0.0 size=N/A time=00:05:00.50 bitrate=N/A speed=19.4x    frame= 7442 fps=465 q=-0.0 size=N/A time=00:05:10.39 bitrate=N/A speed=19.4x    frame= 7709 fps=466 q=-0.0 size=N/A time=00:05:21.52 bitrate=N/A speed=19.4x    frame= 7967 fps=467 q=-0.0 size=N/A time=00:05:32.29 bitrate=N/A speed=19.5x    frame= 8238 fps=469 q=-0.0 size=N/A time=00:05:43.59 bitrate=N/A speed=19.6x    frame= 8502 fps=470 q=-0.0 size=N/A time=00:05:54.60 bitrate=N/A speed=19.6x    frame= 8778 fps=472 q=-0.0 size=N/A time=00:06:06.11 bitrate=N/A speed=19.7x    frame= 9044 fps=473 q=-0.0 size=N/A time=00:06:17.21 bitrate=N/A speed=19.7x    frame= 9307 fps=474 q=-0.0 size=N/A time=00:06:28.17 bitrate=N/A speed=19.8x    frame= 9586 fps=476 q=-0.0 size=N/A time=00:06:39.81 bitrate=N/A speed=19.8x    frame= 9833 fps=476 q=-0.0 size=N/A time=00:06:50.11 bitrate=N/A speed=19.9x    frame=10101 fps=477 q=-0.0 size=N/A time=00:07:01.29 bitrate=N/A speed=19.9x    frame=10372 fps=478 q=-0.0 size=N/A time=00:07:12.59 bitrate=N/A speed=19.9x    frame=10627 fps=478 q=-0.0 size=N/A time=00:07:23.23 bitrate=N/A speed=  20x    frame=10890 fps=479 q=-0.0 size=N/A time=00:07:34.20 bitrate=N/A speed=  20x    frame=11107 fps=478 q=-0.0 size=N/A time=00:07:43.25 bitrate=N/A speed=19.9x    frame=11342 fps=477 q=-0.0 size=N/A time=00:07:53.05 bitrate=N/A speed=19.9x    frame=11563 fps=476 q=-0.0 size=N/A time=00:08:02.27 bitrate=N/A speed=19.9x    frame=11821 fps=477 q=-0.0 size=N/A time=00:08:13.03 bitrate=N/A speed=19.9x    frame=12062 fps=477 q=-0.0 size=N/A time=00:08:23.08 bitrate=N/A speed=19.9x    frame=12282 fps=476 q=-0.0 size=N/A time=00:08:32.26 bitrate=N/A speed=19.8x    frame=12551 fps=477 q=-0.0 size=N/A time=00:08:43.48 bitrate=N/A speed=19.9x    frame=12813 fps=477 q=-0.0 size=N/A time=00:08:54.40 bitrate=N/A speed=19.9x    frame=13073 fps=478 q=-0.0 size=N/A time=00:09:05.25 bitrate=N/A speed=19.9x    frame=13314 fps=478 q=-0.0 size=N/A time=00:09:15.30 bitrate=N/A speed=19.9x    frame=13542 fps=477 q=-0.0 size=N/A time=00:09:24.81 bitrate=N/A speed=19.9x    frame=13804 fps=477 q=-0.0 size=N/A time=00:09:35.74 bitrate=N/A speed=19.9x    frame=14061 fps=478 q=-0.0 size=N/A time=00:09:46.46 bitrate=N/A speed=19.9x    frame=14299 fps=478 q=-0.0 size=N/A time=00:09:56.38 bitrate=N/A speed=19.9x    frame=14538 fps=477 q=-0.0 size=N/A time=00:10:06.35 bitrate=N/A speed=19.9x    frame=14814 fps=478 q=-0.0 size=N/A time=00:10:17.86 bitrate=N/A speed=19.9x    frame=15076 fps=479 q=-0.0 size=N/A time=00:10:28.79 bitrate=N/A speed=  20x    frame=15344 fps=479 q=-0.0 size=N/A time=00:10:39.97 bitrate=N/A speed=  20x    frame=15591 fps=479 q=-0.0 size=N/A time=00:10:50.27 bitrate=N/A speed=  20x    frame=15869 fps=480 q=-0.0 size=N/A time=00:11:01.86 bitrate=N/A speed=  20x    frame=16127 fps=481 q=-0.0 size=N/A time=00:11:12.63 bitrate=N/A speed=  20x    frame=16393 fps=481 q=-0.0 size=N/A time=00:11:23.72 bitrate=N/A speed=20.1x    frame=16636 fps=481 q=-0.0 size=N/A time=00:11:33.85 bitrate=N/A speed=20.1x    frame=16884 fps=481 q=-0.0 size=N/A time=00:11:44.20 bitrate=N/A speed=20.1x    frame=17154 fps=482 q=-0.0 size=N/A time=00:11:55.46 bitrate=N/A speed=20.1x    frame=17414 fps=482 q=-0.0 size=N/A time=00:12:06.30 bitrate=N/A speed=20.1x    frame=17675 fps=482 q=-0.0 size=N/A time=00:12:17.19 bitrate=N/A speed=20.1x    frame=17950 fps=483 q=-0.0 size=N/A time=00:12:28.66 bitrate=N/A speed=20.1x    frame=18208 fps=483 q=-0.0 size=N/A time=00:12:39.42 bitrate=N/A speed=20.2x    frame=18459 fps=483 q=-0.0 size=N/A time=00:12:49.89 bitrate=N/A speed=20.2x    frame=18709 fps=483 q=-0.0 size=N/A time=00:13:00.32 bitrate=N/A speed=20.2x    frame=18963 fps=483 q=-0.0 size=N/A time=00:13:10.91 bitrate=N/A speed=20.2x    frame=19208 fps=483 q=-0.0 size=N/A time=00:13:21.13 bitrate=N/A speed=20.2x    frame=19461 fps=483 q=-0.0 size=N/A time=00:13:31.68 bitrate=N/A speed=20.2x    frame=19696 fps=483 q=-0.0 size=N/A time=00:13:41.48 bitrate=N/A speed=20.1x    frame=19973 fps=484 q=-0.0 size=N/A time=00:13:53.04 bitrate=N/A speed=20.2x    frame=20238 fps=484 q=-0.0 size=N/A time=00:14:04.09 bitrate=N/A speed=20.2x    frame=20501 fps=484 q=-0.0 size=N/A time=00:14:15.06 bitrate=N/A speed=20.2x    frame=20757 fps=484 q=-0.0 size=N/A time=00:14:25.73 bitrate=N/A speed=20.2x    frame=21018 fps=485 q=-0.0 size=N/A time=00:14:36.62 bitrate=N/A speed=20.2x    frame=21245 fps=484 q=-0.0 size=N/A time=00:14:46.09 bitrate=N/A speed=20.2x    frame=21499 fps=484 q=-0.0 size=N/A time=00:14:56.68 bitrate=N/A speed=20.2x    frame=21763 fps=485 q=-0.0 size=N/A time=00:15:07.69 bitrate=N/A speed=20.2x    frame=22026 fps=485 q=-0.0 size=N/A time=00:15:18.66 bitrate=N/A speed=20.2x    frame=22287 fps=485 q=-0.0 size=N/A time=00:15:29.55 bitrate=N/A speed=20.2x    frame=22526 fps=485 q=-0.0 size=N/A time=00:15:39.52 bitrate=N/A speed=20.2x    frame=22773 fps=485 q=-0.0 size=N/A time=00:15:49.82 bitrate=N/A speed=20.2x    frame=23009 fps=485 q=-0.0 size=N/A time=00:15:59.66 bitrate=N/A speed=20.2x    frame=23265 fps=485 q=-0.0 size=N/A time=00:16:10.34 bitrate=N/A speed=20.2x    frame=23527 fps=485 q=-0.0 size=N/A time=00:16:21.27 bitrate=N/A speed=20.2x    frame=23791 fps=485 q=-0.0 size=N/A time=00:16:32.28 bitrate=N/A speed=20.2x    frame=24061 fps=486 q=-0.0 size=N/A time=00:16:43.54 bitrate=N/A speed=20.3x    frame=24328 fps=486 q=-0.0 size=N/A time=00:16:54.68 bitrate=N/A speed=20.3x    frame=24605 fps=486 q=-0.0 size=N/A time=00:17:06.23 bitrate=N/A speed=20.3x    frame=24893 fps=487 q=-0.0 size=N/A time=00:17:18.24 bitrate=N/A speed=20.3x    frame=25166 fps=487 q=-0.0 size=N/A time=00:17:29.63 bitrate=N/A speed=20.3x    frame=25435 fps=488 q=-0.0 size=N/A time=00:17:40.85 bitrate=N/A speed=20.3x    frame=25691 fps=488 q=-0.0 size=N/A time=00:17:51.52 bitrate=N/A speed=20.3x    frame=25931 fps=488 q=-0.0 size=N/A time=00:18:01.53 bitrate=N/A speed=20.3x    frame=26189 fps=488 q=-0.0 size=N/A time=00:18:12.29 bitrate=N/A speed=20.3x    frame=26461 fps=488 q=-0.0 size=N/A time=00:18:23.64 bitrate=N/A speed=20.4x    frame=26728 fps=488 q=-0.0 size=N/A time=00:18:34.78 bitrate=N/A speed=20.4x    frame=27001 fps=489 q=-0.0 size=N/A time=00:18:46.16 bitrate=N/A speed=20.4x    frame=27271 fps=489 q=-0.0 size=N/A time=00:18:57.42 bitrate=N/A speed=20.4x    frame=27554 fps=490 q=-0.0 size=N/A time=00:19:09.23 bitrate=N/A speed=20.4x    frame=27838 fps=490 q=-0.0 size=N/A time=00:19:21.07 bitrate=N/A speed=20.4x    frame=28100 fps=490 q=-0.0 size=N/A time=00:19:32.00 bitrate=N/A speed=20.5x    frame=28373 fps=491 q=-0.0 size=N/A time=00:19:43.39 bitrate=N/A speed=20.5x    frame=28662 fps=491 q=-0.0 size=N/A time=00:19:55.44 bitrate=N/A speed=20.5x    frame=28942 fps=492 q=-0.0 size=N/A time=00:20:07.12 bitrate=N/A speed=20.5x    frame=29195 fps=492 q=-0.0 size=N/A time=00:20:17.67 bitrate=N/A speed=20.5x    frame=29472 fps=492 q=-0.0 size=N/A time=00:20:29.22 bitrate=N/A speed=20.5x    frame=29735 fps=492 q=-0.0 size=N/A time=00:20:40.19 bitrate=N/A speed=20.5x    frame=29987 fps=492 q=-0.0 size=N/A time=00:20:50.70 bitrate=N/A speed=20.5x    frame=30259 fps=492 q=-0.0 size=N/A time=00:21:02.05 bitrate=N/A speed=20.5x    frame=30498 fps=492 q=-0.0 size=N/A time=00:21:12.02 bitrate=N/A speed=20.5x    frame=30781 fps=493 q=-0.0 size=N/A time=00:21:23.82 bitrate=N/A speed=20.5x    frame=31018 fps=492 q=-0.0 size=N/A time=00:21:33.70 bitrate=N/A speed=20.5x    frame=31244 fps=492 q=-0.0 size=N/A time=00:21:43.13 bitrate=N/A speed=20.5x    frame=31497 fps=492 q=-0.0 size=N/A time=00:21:53.68 bitrate=N/A speed=20.5x    frame=31750 fps=492 q=-0.0 size=N/A time=00:22:04.23 bitrate=N/A speed=20.5x    frame=32000 fps=492 q=-0.0 size=N/A time=00:22:14.66 bitrate=N/A speed=20.5x    frame=32234 fps=492 q=-0.0 size=N/A time=00:22:24.42 bitrate=N/A speed=20.5x    frame=32440 fps=491 q=-0.0 size=N/A time=00:22:33.01 bitrate=N/A speed=20.5x    frame=32626 fps=490 q=-0.0 size=N/A time=00:22:40.77 bitrate=N/A speed=20.4x    frame=32827 fps=489 q=-0.0 size=N/A time=00:22:49.15 bitrate=N/A speed=20.4x    frame=33021 fps=488 q=-0.0 size=N/A time=00:22:57.25 bitrate=N/A speed=20.4x    frame=33201 fps=487 q=-0.0 size=N/A time=00:23:04.75 bitrate=N/A speed=20.3x    frame=33384 fps=486 q=-0.0 size=N/A time=00:23:12.39 bitrate=N/A speed=20.3x    frame=33585 fps=485 q=-0.0 size=N/A time=00:23:20.77 bitrate=N/A speed=20.2x    frame=33757 fps=484 q=-0.0 size=N/A time=00:23:27.94 bitrate=N/A speed=20.2x    frame=33978 fps=484 q=-0.0 size=N/A time=00:23:37.16 bitrate=N/A speed=20.2x    [Parsed_ssim_10 @ 00000245ea049e40] SSIM Y:0.994119 (22.305199) U:0.992372 (21.175980) V:0.992541 (21.273183) All:0.993565 (21.914241)
[out#0/null @ 00000245e90845c0] video:14697KiB audio:267500KiB subtitle:0KiB other streams:0KiB global headers:0KiB muxing overhead: unknown
frame=34203 fps=484 q=-0.0 Lsize=N/A time=00:23:46.55 bitrate=N/A speed=20.2x    
